<svg width="32" height="32" viewBox="0 0 32 32" fill="none" xmlns="http://www.w3.org/2000/svg">
<rect x="0.5" y="0.5" width="31" height="31" rx="15.5" stroke="#8F1402"/>
<path d="M12.7695 20.9805H13.543V19.2305H15.293V18.457H13.543V16.707H12.7695V18.457H11.0195V19.2305H12.7695V20.9805ZM17.1445 20.3242H20.9805V19.5507H17.1445V20.3242ZM17.1445 18.1367H20.9805V17.3632H17.1445V18.1367ZM17.8375 14.6778L19.0625 13.4528L20.2875 14.6778L20.8361 14.1292L19.6111 12.8937L20.8361 11.6687L20.2875 11.1201L19.0625 12.3451L17.8375 11.1201L17.2889 11.6687L18.5139 12.8937L17.2889 14.1292L17.8375 14.6778ZM11.2382 13.2805H15.0742V12.507H11.2382V13.2805ZM10.414 23C10.0109 23 9.67462 22.8652 9.40512 22.5957C9.13562 22.3262 9.00058 21.9896 9 21.586V10.414C9 10.0109 9.13504 9.67459 9.40512 9.40509C9.67521 9.13559 10.0115 9.00055 10.414 8.99997H21.5869C21.9894 8.99997 22.3257 9.13501 22.5957 9.40509C22.8658 9.67518 23.0006 10.0115 23 10.414V21.5868C23 21.9893 22.8652 22.3256 22.5957 22.5957C22.3262 22.8658 21.9897 23.0006 21.586 23H10.414ZM10.414 22.125H21.5869C21.721 22.125 21.8444 22.069 21.957 21.957C22.0696 21.845 22.1256 21.7213 22.125 21.586V10.414C22.125 10.2792 22.069 10.1556 21.957 10.043C21.845 9.93039 21.7213 9.87439 21.586 9.87497H10.414C10.2792 9.87497 10.1556 9.93097 10.043 10.043C9.93042 10.155 9.87442 10.2786 9.875 10.414V21.5868C9.875 21.721 9.931 21.8444 10.043 21.957C10.155 22.0696 10.2792 22.1256 10.414 22.125Z" fill="#8F1402"/>
</svg>
