<svg width="28" height="28" viewBox="0 0 28 28" fill="none" xmlns="http://www.w3.org/2000/svg">
<rect x="0.7" y="0.7" width="26.6" height="26.6" rx="13.3" stroke="#8F1402" stroke-width="1.4"/>
<path d="M7.37098 15.939C7.22188 16.9148 7.88758 17.5917 8.70238 17.9291C11.8265 19.2241 16.1735 19.2241 19.2976 17.9291C20.1124 17.5917 20.7781 16.9141 20.629 15.939C20.538 15.3391 20.0851 14.84 19.7498 14.3521C19.3109 13.7053 19.2675 13.0004 19.2668 12.25C19.2675 9.3506 16.9099 7 14 7C11.0901 7 8.73248 9.3506 8.73248 12.25C8.73248 13.0004 8.68908 13.706 8.24948 14.3521C7.91488 14.84 7.46268 15.3391 7.37098 15.939Z" stroke="#8F1402" stroke-width="1.05" stroke-linecap="round" stroke-linejoin="round"/>
<path d="M11.2 18.9C11.5206 20.1075 12.6532 21 14 21C15.3475 21 16.4787 20.1075 16.8 18.9" stroke="#8F1402" stroke-width="1.05" stroke-linecap="round" stroke-linejoin="round"/>
</svg>
