<svg width="32" height="32" viewBox="0 0 32 32" fill="none" xmlns="http://www.w3.org/2000/svg">
<rect x="0.5" y="0.5" width="31" height="31" rx="15.5" stroke="#8F1402"/>
<path d="M16 7.99999C16.9224 7.99999 17.792 8.23199 18.5512 8.63999C18.4904 8.99599 18.372 9.24799 18.2104 9.41039C18.1101 9.5078 17.9912 9.58398 17.8608 9.63439C17.3616 9.3999 16.8211 9.26604 16.2701 9.24045C15.7191 9.21486 15.1685 9.29804 14.6497 9.48525C14.1309 9.67245 13.654 9.96001 13.2463 10.3315C12.8386 10.703 12.5081 11.1512 12.2736 11.6504C12.0391 12.1496 11.9053 12.6902 11.8797 13.2411C11.8541 13.7921 11.9373 14.3427 12.1245 14.8615C12.3117 15.3803 12.5992 15.8572 12.9707 16.2649C13.3422 16.6726 13.7904 17.0031 14.2896 17.2376C14.8406 17.4515 15.3488 17.5707 15.8144 17.5952L16 17.6C16.5163 17.6 17.0862 17.4795 17.7096 17.2384C18.4388 16.9109 19.0606 16.384 19.5032 15.7184C20.0152 15.8944 20.6304 15.7872 21.0184 15.3976C20.6882 16.2252 20.1587 16.9584 19.4768 17.532L20.7736 21.424C20.8769 21.7337 20.8686 22.0698 20.7503 22.3741C20.632 22.6784 20.411 22.9318 20.1256 23.0904C19.0288 23.7008 17.6512 24 16 24C14.3488 24 12.9712 23.7008 11.8744 23.0904C11.589 22.9318 11.3681 22.6784 11.2498 22.3741C11.1314 22.0698 11.1232 21.7337 11.2264 21.424L12.5232 17.532C11.6757 16.8189 11.068 15.8625 10.7824 14.7923C10.4968 13.7222 10.5472 12.5901 10.9267 11.5496C11.3063 10.5091 11.9966 9.6104 12.9041 8.97544C13.8116 8.34048 14.8924 7.99995 16 7.99999ZM18.4456 18.2328L18.1576 18.352L18.1432 18.3584C17.5475 18.6162 16.91 18.7636 16.2616 18.7936H16.248L16.1896 18.7968L16 18.8L15.8432 18.7968L15.7392 18.7928C15.0906 18.7632 14.4528 18.616 13.8568 18.3584L13.8424 18.352C13.7457 18.314 13.6497 18.2742 13.5544 18.2328L12.3648 21.804C12.3501 21.8481 12.3513 21.896 12.3681 21.9393C12.3849 21.9827 12.4163 22.0189 12.4568 22.0416C13.3608 22.5432 14.5392 22.8 16 22.8C17.4608 22.8 18.64 22.544 19.5432 22.0416C19.5838 22.0189 19.6152 21.9827 19.6319 21.9393C19.6487 21.896 19.6499 21.8481 19.6352 21.804L18.4456 18.2328ZM15.752 18.7944L15.8432 18.7968L15.8696 18.7984L16 18.8C15.9168 18.8 15.8342 18.7981 15.752 18.7944ZM20.7936 7.90399L20.8 7.99999C20.8 8.91999 21.016 9.56799 21.424 9.97599C21.8008 10.352 22.3824 10.5656 23.192 10.596L23.4 10.6C24.1664 10.6 24.1984 11.7024 23.496 11.7936L23.4 11.8C22.48 11.8 21.832 12.016 21.424 12.424C21.048 12.8016 20.8344 13.3824 20.804 14.192L20.8 14.4C20.8 15.2 19.6 15.2 19.6 14.4C19.6 13.48 19.384 12.832 18.976 12.424C18.5984 12.048 18.0176 11.8344 17.208 11.804L17 11.8C16.2336 11.8 16.2016 10.6976 16.904 10.6064L17 10.6C17.92 10.6 18.568 10.384 18.976 9.97599C19.384 9.56799 19.6 8.91999 19.6 7.99999C19.6 7.23359 20.7024 7.20159 20.7936 7.90399ZM20.2 10.3624L20.0848 10.5248C19.8845 10.7899 19.6398 11.0183 19.3616 11.2C19.6961 11.4181 19.9816 11.7033 20.2 12.0376C20.4182 11.7034 20.7034 11.4181 21.0376 11.2C20.7597 11.0183 20.5153 10.7898 20.3152 10.5248L20.2 10.3624Z" fill="#8F1402"/>
</svg>
