<svg width="24" height="24" viewBox="0 0 24 24" fill="none" xmlns="http://www.w3.org/2000/svg">
<path d="M1.00012 19.6666C1.00012 18.2521 1.56203 16.8955 2.56222 15.8953C3.56241 14.8952 4.91897 14.3333 6.33346 14.3333H17.0001C18.4146 14.3333 19.7712 14.8952 20.7714 15.8953C21.7716 16.8955 22.3335 18.2521 22.3335 19.6666C22.3335 20.3738 22.0525 21.0521 21.5524 21.5522C21.0523 22.0523 20.374 22.3333 19.6668 22.3333H3.66679C2.95954 22.3333 2.28127 22.0523 1.78117 21.5522C1.28107 21.0521 1.00012 20.3738 1.00012 19.6666Z" stroke="black" stroke-width="1.5" stroke-linejoin="round"/>
<path d="M11.6667 9C13.8759 9 15.6667 7.20914 15.6667 5C15.6667 2.79086 13.8759 1 11.6667 1C9.45761 1 7.66675 2.79086 7.66675 5C7.66675 7.20914 9.45761 9 11.6667 9Z" stroke="black" stroke-width="1.5"/>
</svg>
