<svg width="30" height="30" viewBox="0 0 30 30" fill="none" xmlns="http://www.w3.org/2000/svg">
<path d="M9.84348 1.41162H3.94833C3.16689 1.41242 2.41767 1.7231 1.86497 2.27552C1.31226 2.82794 1.0012 3.577 1 4.35844V24.9922C1 26.6193 2.31979 27.939 3.94833 27.939H9.84348C10.6247 27.9378 11.3735 27.627 11.9259 27.0746C12.4782 26.5222 12.7891 25.7734 12.7903 24.9922V4.35844C12.7891 3.57726 12.4782 2.82843 11.9259 2.27605C11.3735 1.72368 10.6247 1.41282 9.84348 1.41162Z" stroke="black" stroke-width="1.5" stroke-linecap="round" stroke-linejoin="round"/>
<path d="M12.79 8.54482L17.5061 26.2303C17.7106 26.9839 18.2056 27.6258 18.8824 28.0153C19.5593 28.4048 20.363 28.5102 21.1174 28.3083L26.8203 26.8342C27.5746 26.6307 28.2173 26.136 28.607 25.4588C28.9967 24.7816 29.1015 23.9774 28.8983 23.2229L23.5632 3.1794C23.3597 2.42505 22.865 1.78238 22.1878 1.3927C21.5106 1.00301 20.7064 0.898212 19.9519 1.10134L14.2642 2.6194C13.6497 2.7874 13.1078 3.14913 12.7158 3.65161M6.89484 22.846C7.49836 22.846 8.07716 22.6063 8.50391 22.1795C8.93066 21.7528 9.17041 21.174 9.17041 20.5705C9.17041 19.9669 8.93066 19.3881 8.50391 18.9614C8.07716 18.5346 7.49836 18.2949 6.89484 18.2949C6.29132 18.2949 5.71252 18.5346 5.28576 18.9614C4.85901 19.3881 4.61926 19.9669 4.61926 20.5705C4.61926 21.174 4.85901 21.7528 5.28576 22.1795C5.71252 22.6063 6.29132 22.846 6.89484 22.846Z" stroke="black" stroke-width="1.5" stroke-linecap="round" stroke-linejoin="round"/>
<path d="M22.0604 22.6372C22.6633 22.6372 23.2416 22.3977 23.6679 21.9713C24.0942 21.545 24.3337 20.9668 24.3337 20.3639C24.3337 19.761 24.0942 19.1827 23.6679 18.7564C23.2416 18.3301 22.6633 18.0906 22.0604 18.0906C21.4575 18.0906 20.8793 18.3301 20.4529 18.7564C20.0266 19.1827 19.7871 19.761 19.7871 20.3639C19.7871 20.9668 20.0266 21.545 20.4529 21.9713C20.8793 22.3977 21.4575 22.6372 22.0604 22.6372Z" stroke="black" stroke-width="1.5" stroke-linecap="round" stroke-linejoin="round"/>
</svg>
