<svg width="32" height="32" viewBox="0 0 32 32" fill="none" xmlns="http://www.w3.org/2000/svg">
<rect x="0.5" y="0.5" width="31" height="31" rx="15.5" stroke="#8F1402"/>
<path d="M13.4744 9.01756H10.3584C9.9454 9.01799 9.54939 9.1822 9.25724 9.47419C8.9651 9.76618 8.80068 10.1621 8.80005 10.5752V21.4816C8.80005 22.3416 9.49765 23.0392 10.3584 23.0392H13.4744C13.8874 23.0385 14.2832 22.8742 14.5751 22.5823C14.8671 22.2903 15.0314 21.8945 15.032 21.4816V10.5752C15.0314 10.1623 14.8671 9.76644 14.5751 9.47447C14.2832 9.18251 13.8874 9.0182 13.4744 9.01756Z" stroke="#8F1402" stroke-width="1.2" stroke-linecap="round" stroke-linejoin="round"/>
<path d="M15.0319 12.788L17.5247 22.136C17.6328 22.5344 17.8944 22.8736 18.2522 23.0795C18.61 23.2854 19.0348 23.3411 19.4335 23.2344L22.4479 22.4552C22.8467 22.3476 23.1864 22.0861 23.3923 21.7282C23.5983 21.3702 23.6537 20.9452 23.5463 20.5464L20.7263 9.95198C20.6188 9.55326 20.3573 9.21356 19.9993 9.00759C19.6414 8.80161 19.2163 8.74622 18.8175 8.85358L15.8111 9.65598C15.4863 9.74478 15.1999 9.93598 14.9927 10.2016M11.9159 20.3472C12.2349 20.3472 12.5409 20.2205 12.7664 19.9949C12.992 19.7693 13.1187 19.4634 13.1187 19.1444C13.1187 18.8254 12.992 18.5194 12.7664 18.2939C12.5409 18.0683 12.2349 17.9416 11.9159 17.9416C11.5969 17.9416 11.291 18.0683 11.0654 18.2939C10.8399 18.5194 10.7131 18.8254 10.7131 19.1444C10.7131 19.4634 10.8399 19.7693 11.0654 19.9949C11.291 20.2205 11.5969 20.3472 11.9159 20.3472Z" stroke="#8F1402" stroke-width="1.2" stroke-linecap="round" stroke-linejoin="round"/>
<path d="M19.9319 20.2368C20.2506 20.2368 20.5563 20.1102 20.7816 19.8848C21.0069 19.6595 21.1335 19.3539 21.1335 19.0352C21.1335 18.7165 21.0069 18.4109 20.7816 18.1855C20.5563 17.9602 20.2506 17.8336 19.9319 17.8336C19.6133 17.8336 19.3076 17.9602 19.0823 18.1855C18.8569 18.4109 18.7303 18.7165 18.7303 19.0352C18.7303 19.3539 18.8569 19.6595 19.0823 19.8848C19.3076 20.1102 19.6133 20.2368 19.9319 20.2368Z" stroke="#8F1402" stroke-width="1.2" stroke-linecap="round" stroke-linejoin="round"/>
</svg>
